<?xml version="1.0" standalone="no"?>
<!DOCTYPE svg PUBLIC "-//W3C//DTD SVG 20010904//EN"
 "http://www.w3.org/TR/2001/REC-SVG-20010904/DTD/svg10.dtd">
<svg version="1.0" xmlns="http://www.w3.org/2000/svg"
 width="316.000000pt" height="316.000000pt" viewBox="0 0 316.000000 316.000000"
 preserveAspectRatio="xMidYMid meet">
<metadata>
Created by potrace 1.14, written by Peter Selinger 2001-2017
</metadata>
<g transform="translate(0.000000,316.000000) scale(0.100000,-0.100000)"
fill="#000000" stroke="none">
<path d="M0 1580 l0 -1580 1580 0 1580 0 0 1580 0 1580 -1580 0 -1580 0 0
-1580z m1363 934 c15 -3 27 -12 27 -20 0 -8 9 -14 20 -14 20 0 29 -4 77 -28
31 -16 43 -15 88 8 22 11 45 20 52 20 7 0 13 6 13 14 0 10 20 17 68 23 126 15
292 4 292 -20 0 -7 21 -19 48 -26 73 -22 109 -42 121 -67 6 -13 19 -24 30 -24
11 0 23 -12 31 -30 7 -16 18 -30 25 -30 7 0 15 -17 19 -37 3 -21 6 -413 6
-870 l0 -833 -145 0 -145 0 0 835 c0 736 -2 835 -15 835 -8 0 -15 7 -15 15 0
26 -48 63 -90 70 -53 9 -132 -4 -152 -25 -9 -10 -23 -20 -30 -22 -11 -4 -14
-166 -16 -856 l-2 -852 -150 0 -150 0 0 851 c0 842 0 851 -20 856 -11 3 -20
11 -20 18 0 7 -22 18 -50 25 -65 16 -136 6 -150 -21 -6 -10 -19 -19 -29 -19
-11 0 -22 -7 -25 -16 -3 -9 -6 -393 -6 -855 l0 -839 -150 0 -150 0 0 860 c0
567 3 860 10 860 6 0 10 7 10 16 0 15 66 84 81 84 5 0 16 8 26 18 23 24 70 49
106 57 15 3 27 12 27 19 0 10 18 16 58 21 31 3 66 8 77 10 24 4 158 -4 198
-11z"/>
</g>
</svg>
